<?xml version="1.0" encoding="UTF-8"?>
<svg version="1.1" xmlns="http://www.w3.org/2000/svg" width="890" height="580">
<path d="M0 0 C5.12286785 4.10268218 8.68950445 9.17428252 9.94921875 15.7109375 C10.03411205 17.39053436 10.06699095 19.07314727 10.06274414 20.75488281 C10.06266861 21.75561829 10.06259308 22.75635376 10.06251526 23.78741455 C10.05735397 24.86045837 10.05219269 25.9335022 10.046875 27.0390625 C10.04546005 28.14320496 10.0440451 29.24734741 10.04258728 30.38494873 C10.03699133 33.91030592 10.02443954 37.43559952 10.01171875 40.9609375 C10.00670323 43.35156158 10.00214041 45.74218666 9.99804688 48.1328125 C9.98702322 53.99221199 9.96976132 59.85156396 9.94921875 65.7109375 C4.99921875 65.7109375 0.04921875 65.7109375 -5.05078125 65.7109375 C-5.05078125 57.7909375 -5.05078125 49.8709375 -5.05078125 41.7109375 C-7.03078125 43.0309375 -9.01078125 44.3509375 -11.05078125 45.7109375 C-20.10285792 47.1215065 -26.85589715 45.67203216 -34.23828125 40.4609375 C-40.37383436 34.46173001 -42.18649217 28.39127573 -42.42578125 19.9609375 C-42.36494062 13.44423016 -41.46248936 9.51454861 -37.05078125 4.7109375 C-36.54289063 4.14761719 -36.035 3.58429688 -35.51171875 3.00390625 C-26.15681986 -6.10714457 -10.90290113 -6.85325214 0 0 Z " fill="#066338" transform="translate(599.05078125,266.2890625)"/>
<path d="M0 0 C4.62 0 9.24 0 14 0 C14 7.92 14 15.84 14 24 C15.98 22.68 17.96 21.36 20 20 C26.23189154 17.92270282 32.1847206 18.26653852 38.1875 20.9375 C44.46973298 24.41993466 48.266249 29.53249799 51.4375 35.875 C52.95114593 44.28414406 52.70056422 51.6726499 48 59 C43.19930124 65.10781971 38.05888067 68.50350084 30.16796875 69.46875 C21.00170286 69.54071283 13.47869395 68.96007972 6.390625 62.54296875 C0.05599119 55.48171518 -0.41975092 49.09885479 -0.29296875 40.0390625 C-0.28872391 38.89335785 -0.28447906 37.7476532 -0.28010559 36.56723022 C-0.2633564 32.91957785 -0.22570991 29.27248449 -0.1875 25.625 C-0.17244836 23.14714341 -0.15876079 20.66927814 -0.14648438 18.19140625 C-0.11346499 12.12738984 -0.06170749 6.0637896 0 0 Z " fill="#066338" transform="translate(619,243)"/>
<path d="M0 0 C1.9375 1.1875 1.9375 1.1875 3 3 C3.4375 5.9375 3.4375 5.9375 3 9 C1.1875 11.375 1.1875 11.375 -1 13 C-1.99 13 -2.98 13 -4 13 C-3.98839844 13.58265625 -3.97679687 14.1653125 -3.96484375 14.765625 C-3.8899637 21.56901244 -4.36983554 28.22573207 -5 35 C-0.71 35.33 3.58 35.66 8 36 C8.99 38.97 8.99 38.97 10 42 C11.49886871 43.83689476 11.49886871 43.83689476 13 45 C10.6875 44.8125 10.6875 44.8125 8 44 C7.62875 43.195625 7.2575 42.39125 6.875 41.5625 C4.49378785 38.30817672 3.20133174 38.37288797 -0.6875 37.6875 C-2.45551905 37.43754659 -4.22584132 37.20181432 -6 37 C-5.98839844 38.15757812 -5.97679687 39.31515625 -5.96484375 40.5078125 C-5.95545923 42.04687338 -5.94635974 43.58593601 -5.9375 45.125 C-5.92912109 45.88554687 -5.92074219 46.64609375 -5.91210938 47.4296875 C-5.89353491 51.7389644 -6.13882735 55.75516474 -7 60 C-6.071875 60.185625 -6.071875 60.185625 -5.125 60.375 C-3 61 -3 61 -1 63 C3.93732463 62.53341434 8.07331522 60.18783524 12.4765625 58.05859375 C15 57 15 57 18 57 C18 54.69 18 52.38 18 50 C18.66 50 19.32 50 20 50 C20.48828125 55.95703125 20.48828125 55.95703125 20 58 C17.83203125 59.59375 17.83203125 59.59375 15 61 C14.07960938 61.45761719 13.15921875 61.91523438 12.2109375 62.38671875 C11.27507812 62.81597656 10.33921875 63.24523437 9.375 63.6875 C8.43398437 64.12449219 7.49296875 64.56148438 6.5234375 65.01171875 C4 66 4 66 1 66 C1.33 67.32 1.66 68.64 2 70 C6.17840026 70.88526399 10.35922456 71.75765126 14.54272461 72.6184082 C15.96435082 72.91276655 17.38526646 73.21057931 18.80541992 73.51196289 C20.85156279 73.94555884 22.89997281 74.36650455 24.94921875 74.78515625 C26.17987061 75.04176025 27.41052246 75.29836426 28.6784668 75.56274414 C31.87088526 75.98300298 33.9533398 75.97764183 37 75 C37.66 74.34 38.32 73.68 39 73 C42.89201406 72.56755399 45.13230302 72.42153535 48.4375 74.625 C50.47161336 77.71685231 50.60605429 79.36367425 50 83 C48.4375 85.375 48.4375 85.375 46 87 C40.08888889 87.72592593 40.08888889 87.72592593 37.125 85.75 C35.89628853 83.83867104 35.49998973 82.1999548 35 80 C34.04633545 79.823479 33.0926709 79.64695801 32.11010742 79.46508789 C28.57064368 78.80935965 25.03170591 78.15083029 21.49291992 77.49145508 C19.96148646 77.20651082 18.42991158 76.92232554 16.89819336 76.63891602 C14.6960749 76.2313278 12.4944801 75.82100936 10.29296875 75.41015625 C9.60849167 75.28407486 8.92401459 75.15799347 8.21879578 75.02809143 C5.39411915 74.49861031 2.73118811 73.91039604 0 73 C-0.20625 73.78375 -0.4125 74.5675 -0.625 75.375 C-2 78 -2 78 -8 80 C-8 85.28 -8 90.56 -8 96 C-6.02 96.66 -4.04 97.32 -2 98 C-0.57958179 100.84083641 -0.68547728 102.85477278 -1 106 C-2.625 108.375 -2.625 108.375 -5 110 C-8.6717087 110.61195145 -10.28813568 110.48706506 -13.375 108.375 C-15.48706506 105.28813568 -15.61195145 103.6717087 -15 100 C-13.125 97.625 -13.125 97.625 -11 96 C-10.34 96 -9.68 96 -9 96 C-9 90.72 -9 85.44 -9 80 C-10.65 79.67 -12.3 79.34 -14 79 C-17.84597541 75.36768989 -18.81288183 72.23930862 -19 67 C-18.0625 64.0625 -18.0625 64.0625 -17 62 C-19.88799056 60.93982176 -19.88799056 60.93982176 -22.5625 60.625 C-25 60 -25 60 -27 57 C-26.8125 54.4375 -26.8125 54.4375 -26 52 C-23 50 -23 50 -20.4375 50.25 C-18 51 -18 51 -16 53 C-15.875 56.625 -15.875 56.625 -16 60 C-13.03 59.505 -13.03 59.505 -10 59 C-9.34 51.41 -8.68 43.82 -8 36 C-12.6715625 35.7215625 -12.6715625 35.7215625 -17.4375 35.4375 C-18.91174438 35.34553345 -18.91174438 35.34553345 -20.41577148 35.25170898 C-21.18477783 35.20860596 -21.95378418 35.16550293 -22.74609375 35.12109375 C-23.53685303 35.0739624 -24.3276123 35.02683105 -25.14233398 34.97827148 C-27.01674312 34.78381373 -27.01674312 34.78381373 -28 36 C-29.66617115 36.04063832 -31.33388095 36.042721 -33 36 C-33.2475 36.680625 -33.495 37.36125 -33.75 38.0625 C-34.77536978 40.47211898 -35.85549863 42.37652488 -37.25 44.5625 C-38.11625 46.2640625 -38.11625 46.2640625 -39 48 C-38.28436734 50.0162233 -38.28436734 50.0162233 -37 52 C-36.5107976 56.280521 -36.54432423 59.31648635 -39 63 C-38.64988516 66.656755 -36.69678169 69.53860483 -34.8125 72.625 C-34.24144531 73.58664062 -33.67039063 74.54828125 -33.08203125 75.5390625 C-30.58223747 78.4937906 -28.67409027 78.99571552 -25 80 C-24.01 80.99 -24.01 80.99 -23 82 C-23.56818182 87.56818182 -23.56818182 87.56818182 -25 89 C-27.9375 89.1875 -27.9375 89.1875 -31 89 C-31.99 88.01 -31.99 88.01 -33 87 C-32.87625 85.88625 -32.7525 84.7725 -32.625 83.625 C-32.39262291 77.87894838 -36.0051408 73.98947702 -39.25 69.5390625 C-41 67 -41 67 -41 65 C-41.99 65.495 -41.99 65.495 -43 66 C-45.6723621 66.13415472 -48.32250488 66.04318541 -51 66 C-52.91347184 69.20395284 -53.13381198 71.30911605 -52.875 75 C-52.81978147 78.39844932 -52.818908 79.68852176 -54.5625 82.6875 C-58.10346152 84.59417159 -60.19882756 84.10579562 -64 83 C-66 81.375 -66 81.375 -67 79 C-66.9356663 75.33297892 -66.87176152 72.97234939 -64.375 70.1875 C-61.34149946 68.67074973 -58.28353267 67.82088317 -55 67 C-54.29805007 65.19747131 -54.29805007 65.19747131 -54 63 C-54.4640625 62.071875 -54.4640625 62.071875 -54.9375 61.125 C-56.3470364 58.30592721 -56.20294144 56.11176868 -56 53 C-55.67 52.34 -55.34 51.68 -55 51 C-58.18179668 50.39394349 -61.00273957 50.00010537 -64.25 50.125 C-65.1575 50.08375 -66.065 50.0425 -67 50 C-69 47 -69 47 -68.75 44.4375 C-68 42 -68 42 -66 40 C-63.125 39.875 -63.125 39.875 -60 41 C-58.26516074 43.51234345 -57.09996722 46.1594964 -56 49 C-55.44054687 48.84402344 -54.88109375 48.68804687 -54.3046875 48.52734375 C-52 48 -52 48 -49.6328125 47.81640625 C-45.58591465 47.4066736 -42.91588881 46.94112984 -40.015625 43.9609375 C-36.96860321 39.27432779 -34.98588722 34.77053477 -35.41796875 29.11328125 C-36.51081071 25.14531146 -38.68952945 22.40171393 -42 20 C-45.64182335 19.10944264 -45.64182335 19.10944264 -49 19 C-51 17 -51 17 -51.25 14 C-51 11 -51 11 -49 9 C-45.375 9.375 -45.375 9.375 -42 10 C-41.87625 10.9075 -41.7525 11.815 -41.625 12.75 C-40.54972661 18.34142164 -38.0512259 21.9487741 -34 26 C-30.91634129 26.2502157 -30.91634129 26.2502157 -28 26 C-26.125 27.375 -26.125 27.375 -25 29 C-25 29.66 -25 30.32 -25 31 C-23.700625 31.12375 -22.40125 31.2475 -21.0625 31.375 C-16.28150048 31.89863328 -11.66885899 32.86313835 -7 34 C-7.01160156 32.90300781 -7.02320313 31.80601562 -7.03515625 30.67578125 C-7.04453964 29.22135588 -7.05363925 27.76692865 -7.0625 26.3125 C-7.07087891 25.59126953 -7.07925781 24.87003906 -7.08789062 24.12695312 C-7.10543632 20.28444618 -6.93524221 16.73360474 -6 13 C-6.639375 12.690625 -7.27875 12.38125 -7.9375 12.0625 C-10 11 -10 11 -11 10 C-11.58309038 2.7696793 -11.58309038 2.7696793 -9.4375 -0.0625 C-5.94173294 -1.40702579 -3.58985565 -0.91378144 0 0 Z " fill="#236848" transform="translate(223,231)"/>
<path d="M0 0 C5.53851931 4.42608167 8.85573259 9.63885308 9.953125 16.7109375 C10.10187241 19.0220315 10.22442252 21.33488459 10.328125 23.6484375 C10.78615458 31.27725803 12.18439546 38.25151291 13.953125 45.7109375 C9.003125 45.7109375 4.053125 45.7109375 -1.046875 45.7109375 C-1.706875 43.7309375 -2.366875 41.7509375 -3.046875 39.7109375 C-3.55734375 40.1440625 -4.0678125 40.5771875 -4.59375 41.0234375 C-10.15185309 45.28070795 -14.25814206 46.49197081 -21.25 46.1015625 C-27.52050678 45.2257934 -32.8213366 42.52851562 -37.046875 37.7109375 C-42.209665 30.44227263 -43.06865808 23.45923758 -42.046875 14.7109375 C-40.35451527 8.63835258 -36.86532904 3.74967807 -32.046875 -0.2890625 C-21.89954878 -5.76126108 -9.97161826 -6.27983593 0 0 Z " fill="#066338" transform="translate(401.046875,266.2890625)"/>
<path d="M0 0 C4.59869117 3.99497321 8.1099582 8.16694867 10 14 C10.22705078 17.50512695 10.22705078 17.50512695 10.1953125 21.48828125 C10.1924826 22.19147995 10.18965271 22.89467865 10.18673706 23.6191864 C10.17560151 25.85046892 10.15050997 28.08134017 10.125 30.3125 C10.1149616 31.83137438 10.10583726 33.3502551 10.09765625 34.86914062 C10.07739099 38.57971044 10.03823173 42.28939848 10 46 C5.05 46 0.1 46 -5 46 C-5.02578125 43.89238281 -5.0515625 41.78476562 -5.078125 39.61328125 C-5.1165916 37.56114626 -5.16173635 35.50925865 -5.20751953 33.45727539 C-5.23566014 32.03649808 -5.25690908 30.61556622 -5.27099609 29.19458008 C-5.29252394 27.14584641 -5.33921514 25.098957 -5.390625 23.05078125 C-5.41157227 21.82012939 -5.43251953 20.58947754 -5.45410156 19.3215332 C-6.09209244 15.43966114 -7.23119046 13.74834721 -10 11 C-12.43176562 10.25349029 -12.43176562 10.25349029 -15 10.4375 C-15.845625 10.43621094 -16.69125 10.43492187 -17.5625 10.43359375 C-20.8576865 11.19930215 -21.92031535 12.33900526 -24 15 C-24.64210552 18.37921394 -24.64210552 18.37921394 -24.609375 22.171875 C-24.62591125 22.8542926 -24.64244751 23.53671021 -24.65948486 24.23980713 C-24.70789839 26.40996354 -24.72931865 28.57941972 -24.75 30.75 C-24.77816562 32.22529552 -24.80809389 33.70055851 -24.83984375 35.17578125 C-24.9169635 38.78417396 -24.95753375 42.39036895 -25 46 C-29.95 46 -34.9 46 -40 46 C-40.09234164 41.58812167 -40.17181085 37.17965658 -40.21972656 32.76757812 C-40.23971919 31.2700661 -40.26692299 29.77263092 -40.30175781 28.27539062 C-40.51841391 18.71703337 -40.56362929 11.52130739 -34.17578125 3.79296875 C-23.88551429 -5.07348769 -12.08033659 -6.59246235 0 0 Z " fill="#086439" transform="translate(461,266)"/>
<path d="M0 0 C13.9854257 -1.52753436 13.9854257 -1.52753436 18.84375 2.15625 C24 8.6576087 24 8.6576087 24 12 C27.42243556 8.91934891 27.42243556 8.91934891 29.8828125 5.109375 C31.04699017 2.70275561 31.77565784 1.53792407 34 0 C39.39470702 -0.61995625 44.59491789 -0.40014121 50 0 C48.59866287 3.01526755 46.94213627 5.54751454 44.92578125 8.1875 C44.34119141 8.96867187 43.75660156 9.74984375 43.15429688 10.5546875 C41.92217769 12.19054457 40.6825172 13.82074762 39.43554688 15.4453125 C38.85482422 16.22648437 38.27410156 17.00765625 37.67578125 17.8125 C37.13864502 18.52019531 36.60150879 19.22789062 36.0480957 19.95703125 C34.81422559 21.91831552 34.81422559 21.91831552 35.16918945 24.01367188 C36.09870617 26.23598983 37.21106913 28.01183484 38.6171875 29.96875 C39.14183594 30.70480469 39.66648437 31.44085938 40.20703125 32.19921875 C40.75746094 32.95847656 41.30789063 33.71773438 41.875 34.5 C42.41769531 35.25925781 42.96039062 36.01851563 43.51953125 36.80078125 C46.53361154 41.01153388 46.53361154 41.01153388 49.68017578 45.12304688 C51 47 51 47 51 49 C40.08230907 50.56732496 40.08230907 50.56732496 35 49 C30.75164683 45.69712978 28.34313034 40.73833025 26 36 C22.88347841 38.95113405 20.65056005 41.5220095 18.6875 45.3125 C17.22265625 47.39453125 17.22265625 47.39453125 15 49 C9.58432498 49.7031253 4.42793376 49.46414636 -1 49 C1.96127934 43.52199173 5.3820338 38.67094061 9.1875 33.75 C10.26803086 32.35181603 11.3450183 30.9508845 12.41796875 29.546875 C12.89000732 28.93682617 13.3620459 28.32677734 13.84838867 27.69824219 C15.18765839 25.88822205 15.18765839 25.88822205 16 23 C14.55737858 20.66661234 13.09145497 18.55004032 11.4375 16.375 C10.51061997 15.12060282 9.5848383 13.86539331 8.66015625 12.609375 C8.20527832 11.99642578 7.75040039 11.38347656 7.28173828 10.75195312 C4.72436878 7.25639436 2.36187296 3.62921943 0 0 Z " fill="#066338" transform="translate(502,263)"/>
<path d="M0 0 C4.62 0 9.24 0 14 0 C16.88541067 6.40769126 19.62677593 12.85580241 22.25 19.375 C22.61351562 20.26316406 22.97703125 21.15132813 23.3515625 22.06640625 C23.69445312 22.91847656 24.03734375 23.77054687 24.390625 24.6484375 C24.70032227 25.41333496 25.01001953 26.17823242 25.32910156 26.96630859 C26 29 26 29 26 32 C26.66 32 27.32 32 28 32 C28.11786865 31.13938965 28.2357373 30.2787793 28.35717773 29.39208984 C29.00934912 25.95066592 30.01066913 22.98537766 31.28515625 19.7265625 C31.95708008 17.99599609 31.95708008 17.99599609 32.64257812 16.23046875 C33.11115234 15.04066406 33.57972656 13.85085938 34.0625 12.625 C34.53494141 11.41199219 35.00738281 10.19898438 35.49414062 8.94921875 C36.65761766 5.96413627 37.8281246 2.98179548 39 0 C43.95 0 48.9 0 54 0 C51.95492855 6.31232473 49.69067243 12.4772872 47.20703125 18.62890625 C46.85613937 19.50401352 46.5052475 20.37912079 46.14372253 21.28074646 C45.03576607 24.04232274 43.92419884 26.80242843 42.8125 29.5625 C42.05509812 31.44847117 41.29793442 33.33453802 40.54101562 35.22070312 C38.69675996 39.81491184 36.8492673 44.40780641 35 49 C29.72 49 24.44 49 19 49 C16.44907989 42.82763341 13.90407634 36.65287346 11.36450195 30.47583008 C10.4999105 28.37522789 9.63371186 26.27528644 8.76586914 24.17602539 C7.51805309 21.1568391 6.27605413 18.13531639 5.03515625 15.11328125 C4.64658951 14.17664139 4.25802277 13.24000153 3.85768127 12.27497864 C3.49738327 11.39444321 3.13708527 10.51390778 2.76586914 9.60668945 C2.44832169 8.83613724 2.13077423 8.06558502 1.80360413 7.27168274 C1 5 1 5 0 0 Z " fill="#076339" transform="translate(305,263)"/>
<path d="M0 0 C4.95 0 9.9 0 15 0 C15 4.29 15 8.58 15 13 C19.29 13 23.58 13 28 13 C28 17.62 28 22.24 28 27 C23.38 27 18.76 27 14 27 C14.103125 28.876875 14.20625 30.75375 14.3125 32.6875 C14.39951172 34.27111328 14.39951172 34.27111328 14.48828125 35.88671875 C15.04667096 39.28394467 15.97039254 41.24031792 18 44 C22.22737451 46.69014742 26.04664674 47.50466467 31 48 C31 52.29 31 56.58 31 61 C16.68026101 61.59665579 16.68026101 61.59665579 10 57 C9.0925 56.401875 8.185 55.80375 7.25 55.1875 C2.97247649 51.02879659 0.22876147 45.9482471 -0.12025452 39.92449951 C-0.11803391 39.18725647 -0.11581329 38.45001343 -0.11352539 37.69042969 C-0.11344986 36.84986023 -0.11337433 36.00929077 -0.11329651 35.14324951 C-0.10813522 34.24519592 -0.10297394 33.34714233 -0.09765625 32.421875 C-0.0962413 31.4953009 -0.09482635 30.56872681 -0.09336853 29.61407471 C-0.08777824 26.65935008 -0.0752275 23.70470167 -0.0625 20.75 C-0.05748375 18.74479276 -0.05292106 16.73958433 -0.04882812 14.734375 C-0.03781199 9.82288737 -0.020554 4.9114566 0 0 Z " fill="#066338" transform="translate(702,251)"/>
<path d="M0 0 C3.0625 0.1875 3.0625 0.1875 5.0625 2.1875 C5.3125 5.1875 5.3125 5.1875 5.0625 8.1875 C4.4025 8.8475 3.7425 9.5075 3.0625 10.1875 C1.7425 10.1875 0.4225 10.1875 -0.9375 10.1875 C-1.6034306 13.21385788 -2.08457268 16.08321602 -1.9375 19.1875 C0.45835286 21.83337234 0.45835286 21.83337234 3.0625 24.1875 C3.61406805 28.04847632 3.41948156 30.36080586 1.875 33.9375 C-0.9556843 37.45145292 -3.42294794 38.9297039 -7.875 39.6875 C-12.27174682 38.96966378 -14.08648986 37.5948048 -16.9375 34.1875 C-17.14183827 31.0543132 -16.66673092 28.23038174 -15.9375 25.1875 C-16.5975 25.1875 -17.2575 25.1875 -17.9375 25.1875 C-17.9375 27.4975 -17.9375 29.8075 -17.9375 32.1875 C-20.51500095 33.38933475 -23.09821162 34.57406886 -25.6875 35.75 C-26.78191406 36.26336914 -26.78191406 36.26336914 -27.8984375 36.78710938 C-28.60742188 37.10615234 -29.31640625 37.42519531 -30.046875 37.75390625 C-31.02092285 38.20165405 -31.02092285 38.20165405 -32.01464844 38.65844727 C-34.45163075 39.32895776 -35.57519535 39.07461841 -37.9375 38.1875 C-39.5875 37.1975 -41.2375 36.2075 -42.9375 35.1875 C-42.6075 27.5975 -42.2775 20.0075 -41.9375 12.1875 C-38.3075 12.5175 -34.6775 12.8475 -30.9375 13.1875 C-28.4375 16.25 -28.4375 16.25 -26.9375 19.1875 C-25.9475 19.1875 -24.9575 19.1875 -23.9375 19.1875 C-24.576875 18.65125 -25.21625 18.115 -25.875 17.5625 C-28.34966356 14.71288742 -28.77504442 12.92397845 -28.9375 9.1875 C-26.34414095 6.59414095 -24.45002968 6.91023437 -20.91015625 6.82421875 C-18.31286156 7.30253243 -17.45899953 8.04228016 -15.9375 10.1875 C-15.64453125 12.44921875 -15.64453125 12.44921875 -15.75 14.875 C-15.77707031 15.68324219 -15.80414063 16.49148438 -15.83203125 17.32421875 C-15.86683594 17.93910156 -15.90164062 18.55398438 -15.9375 19.1875 C-14.9475 19.1875 -13.9575 19.1875 -12.9375 19.1875 C-12.6075 18.8575 -12.2775 18.5275 -11.9375 18.1875 C-9.26691149 18.04634839 -6.61317762 18.14502893 -3.9375 18.1875 C-3.73125 16.929375 -3.525 15.67125 -3.3125 14.375 C-3.19648438 13.66730469 -3.08046875 12.95960938 -2.9609375 12.23046875 C-2.74172152 9.86994176 -2.74172152 9.86994176 -4.9375 7.1875 C-4.24585118 0.27101178 -4.24585118 0.27101178 0 0 Z " fill="#2A6B4D" transform="translate(258.9375,255.8125)"/>
<path d="M0 0 C4.95 0 9.9 0 15 0 C15 16.17 15 32.34 15 49 C10.05 49 5.1 49 0 49 C0 32.83 0 16.66 0 0 Z " fill="#08643A" transform="translate(677,263)"/>
<path d="M0 0 C3.61138439 1.30009838 3.86664108 1.89161504 5.5 5.1875 C6.06346187 6.49079189 6.61226249 7.80093079 7.125 9.125 C7.68058594 8.97546875 8.23617187 8.8259375 8.80859375 8.671875 C11.125 8.125 11.125 8.125 13.59765625 7.765625 C19.17506308 7.07023827 19.17506308 7.07023827 23.25 3.5 C23.53875 2.71625 23.8275 1.9325 24.125 1.125 C25.115 1.455 26.105 1.785 27.125 2.125 C26.58875 3.0325 26.0525 3.94 25.5 4.875 C25.04625 5.9475 24.5925 7.02 24.125 8.125 C24.93267387 10.07496045 24.93267387 10.07496045 26.125 12.125 C26.60486508 16.40888646 26.5838706 19.43669411 24.125 23.125 C24.47511484 26.781755 26.42821831 29.66360483 28.3125 32.75 C28.88355469 33.71164062 29.45460937 34.67328125 30.04296875 35.6640625 C32.54276253 38.6187906 34.45090973 39.12071552 38.125 40.125 C38.785 40.785 39.445 41.445 40.125 42.125 C39.55681818 47.69318182 39.55681818 47.69318182 38.125 49.125 C35.1875 49.3125 35.1875 49.3125 32.125 49.125 C31.465 48.465 30.805 47.805 30.125 47.125 C30.310625 45.454375 30.310625 45.454375 30.5 43.75 C30.73237709 38.00394838 27.1198592 34.11447702 23.875 29.6640625 C22.125 27.125 22.125 27.125 22.125 25.125 C21.465 25.455 20.805 25.785 20.125 26.125 C17.4526379 26.25915472 14.80249512 26.16818541 12.125 26.125 C10.21152816 29.32895284 9.99118802 31.43411605 10.25 35.125 C10.30521853 38.52344932 10.306092 39.81352176 8.5625 42.8125 C5.02153848 44.71917159 2.92617244 44.23079562 -0.875 43.125 C-2.875 41.5 -2.875 41.5 -3.875 39.125 C-3.8106663 35.45797892 -3.74676152 33.09734939 -1.25 30.3125 C1.78350054 28.79574973 4.84146733 27.94588317 8.125 27.125 C8.82694993 25.32247131 8.82694993 25.32247131 9.125 23.125 C8.815625 22.50625 8.50625 21.8875 8.1875 21.25 C6.7779636 18.43092721 6.92205856 16.23676868 7.125 13.125 C7.455 12.465 7.785 11.805 8.125 11.125 C4.94320332 10.51894349 2.12226043 10.12510537 -1.125 10.25 C-2.0325 10.20875 -2.94 10.1675 -3.875 10.125 C-5.875 7.125 -5.875 7.125 -5.625 4.5625 C-4.53233255 1.01133078 -3.75617129 0.1633118 0 0 Z " fill="#327456" transform="translate(159.875,270.875)"/>
<path d="M0 0 C4.62 0 9.24 0 14 0 C14 16.17 14 32.34 14 49 C9.38 49 4.76 49 0 49 C0 32.83 0 16.66 0 0 Z " fill="#026135" transform="translate(480,263)"/>
<path d="M0 0 C3.25 0.375 3.25 0.375 6.125 2.5625 C8.25 5.375 8.25 5.375 8.5625 8.1875 C8.459375 8.909375 8.35625 9.63125 8.25 10.375 C8.91 10.375 9.57 10.375 10.25 10.375 C10.58 9.715 10.91 9.055 11.25 8.375 C12.13260498 8.56199463 13.01520996 8.74898926 13.92456055 8.94165039 C17.21241106 9.63338559 20.50184209 10.3163077 23.79272461 10.9934082 C25.21435082 11.28776655 26.63526646 11.58557931 28.05541992 11.88696289 C30.10156279 12.32055884 32.14997281 12.74150455 34.19921875 13.16015625 C35.42987061 13.41676025 36.66052246 13.67336426 37.9284668 13.93774414 C41.12088526 14.35800298 43.2033398 14.35264183 46.25 13.375 C46.91 12.715 47.57 12.055 48.25 11.375 C52.14201406 10.94255399 54.38230302 10.79653535 57.6875 13 C59.72161336 16.09185231 59.85605429 17.73867425 59.25 21.375 C57.6875 23.75 57.6875 23.75 55.25 25.375 C49.33888889 26.10092593 49.33888889 26.10092593 46.375 24.125 C45.14628853 22.21367104 44.74998973 20.5749548 44.25 18.375 C42.81950317 18.11021851 42.81950317 18.11021851 41.36010742 17.84008789 C37.82064368 17.18435965 34.28170591 16.52583029 30.74291992 15.86645508 C29.21148646 15.58151082 27.67991158 15.29732554 26.14819336 15.01391602 C23.9460749 14.6063278 21.7444801 14.19600936 19.54296875 13.78515625 C18.51625313 13.59603416 18.51625313 13.59603416 17.46879578 13.40309143 C14.64411915 12.87361031 11.98118811 12.28539604 9.25 11.375 C8.940625 12.550625 8.940625 12.550625 8.625 13.75 C7.25 16.375 7.25 16.375 1.25 18.375 C1.25 23.655 1.25 28.935 1.25 34.375 C3.23 35.035 5.21 35.695 7.25 36.375 C8.67041821 39.21583641 8.56452272 41.22977278 8.25 44.375 C6.625 46.75 6.625 46.75 4.25 48.375 C0.5782913 48.98695145 -1.03813568 48.86206506 -4.125 46.75 C-6.23706506 43.66313568 -6.36195145 42.0467087 -5.75 38.375 C-3.875 36 -3.875 36 -1.75 34.375 C-1.09 34.375 -0.43 34.375 0.25 34.375 C0.25 29.095 0.25 23.815 0.25 18.375 C-1.4 18.045 -3.05 17.715 -4.75 17.375 C-7.50456634 14.76932914 -8.61165197 13.11285618 -9.3125 9.375 C-8.56714299 5.39976263 -6.77318049 3.95576383 -3.75 1.375 C-2.75 0.375 -2.75 0.375 0 0 Z " fill="#326F53" transform="translate(213.75,292.625)"/>
<path d="M0 0 C11 1 11 1 13.625 4 C14.07875 4.99 14.5325 5.98 15 7 C15.33 7.33 15.66 7.66 16 8 C17.91424457 7.8981629 17.91424457 7.8981629 20.0625 7.5625 C22.0115625 7.2840625 22.0115625 7.2840625 24 7 C26.19417855 10.82685472 26.58560185 13.38372973 25.5625 17.66796875 C21.91214083 23.11612981 14.04996298 25.23078792 8 27 C4.23427072 26.52558493 2.50308055 25.10184833 -1 23 C-0.67 15.41 -0.34 7.82 0 0 Z " fill="#EFF7F4" transform="translate(217,268)"/>
<path d="M0 0 C2.93423195 1.79646854 4.47205355 2.9441071 6 6 C6.51436888 10.08555854 6.92098732 14.21847627 4.98828125 17.95703125 C2.85188119 20.59384934 1.23364822 21.92211726 -2 23 C-6.21234945 23.39739146 -8.5099628 23.24964159 -12.3125 21.3125 C-15.24713267 18.78735096 -16.2466984 17.766508 -17 14 C-17.22880909 8.97535245 -16.74197348 5.93222309 -13.5625 1.9375 C-9.43256413 -0.93549887 -4.81519927 -0.89081186 0 0 Z " fill="#F3F8F6" transform="translate(588,276)"/>
<path d="M0 0 C3.125 2.4375 3.125 2.4375 5 5 C5.33 5.33 5.66 5.66 6 6 C6.54740745 10.845902 6.74611856 14.76504514 4.1875 19 C0.48563689 22.38456056 -1.86920279 23.44016525 -6.9296875 23.328125 C-10.27620967 22.79773281 -12.43885971 21.12387243 -15 19 C-17.10687318 14.78625363 -16.50601466 9.57851818 -16 5 C-12.51761922 -1.24426899 -6.49747009 -1.25851898 0 0 Z " fill="#F1F8F5" transform="translate(650,276)"/>
<path d="M0 0 C2.93423195 1.79646854 4.47205355 2.9441071 6 6 C6.42100363 10.57436641 6.51445978 14.70031214 4.8125 19 C2.53902751 21.5086593 1.32890162 22.27632573 -2 23 C-6.49255733 23.0642942 -9.88922895 22.86084756 -13.5 20.0625 C-16.71636294 15.64000096 -16.62916729 11.33533862 -16 6 C-11.95766104 -0.60248696 -7.2842127 -0.85898735 0 0 Z " fill="#F2F8F6" transform="translate(390,276)"/>
<path d="M0 0 C3.24985922 2.68113385 3.89575014 4.35133418 4.5625 8.5 C4 12 4 12 1.9375 14.9375 C-1.74062512 17.52001338 -3.59231863 17.72125695 -8 17 C-11.30748965 14.38882396 -12.81680509 12.37396185 -13.375 8.1875 C-13 5 -13 5 -11 2.125 C-6.83726829 -0.82360163 -5.02455429 -0.7975483 0 0 Z " fill="#0D663D" transform="translate(689,241)"/>
<path d="M0 0 C6.98268601 -0.36117341 12.98673707 0.74668427 19.765625 2.44140625 C22.97606639 2.99586654 24.92327913 2.99829773 28 2 C28.66 1.34 29.32 0.68 30 0 C33.89201406 -0.43244601 36.13230302 -0.57846465 39.4375 1.625 C41.47161336 4.71685231 41.60605429 6.36367425 41 10 C39.4375 12.375 39.4375 12.375 37 14 C31.08888889 14.72592593 31.08888889 14.72592593 28.125 12.75 C26.89628853 10.83867104 26.49998973 9.1999548 26 7 C25.28344238 6.85900879 24.56688477 6.71801758 23.82861328 6.57275391 C20.59245068 5.93140436 17.35875843 5.27835868 14.125 4.625 C12.43310547 4.29242188 12.43310547 4.29242188 10.70703125 3.953125 C9.63066406 3.73398437 8.55429688 3.51484375 7.4453125 3.2890625 C5.95281982 2.99056396 5.95281982 2.99056396 4.43017578 2.68603516 C2 2 2 2 0 0 Z " fill="#246848" transform="translate(232,304)"/>
<path d="M0 0 C2.5 1.4375 2.5 1.4375 4 4 C4.60318106 7.13079693 4.65375511 9.87459178 4 13 C1.30081929 16.35352755 -0.31436636 16.90377072 -4.5625 17.5 C-8 17 -8 17 -10.4375 15.5625 C-12.75830672 11.75637699 -12.76474799 8.34153806 -12 4 C-9.21030092 -0.76573593 -5.06596452 -0.98620211 0 0 Z " fill="#0A633A" transform="translate(491,241)"/>
<path d="M0 0 C3.625 0.375 3.625 0.375 7 1 C7.12375 1.9075 7.2475 2.815 7.375 3.75 C8.45027339 9.34142164 10.9487741 12.9487741 15 17 C18.08365871 17.2502157 18.08365871 17.2502157 21 17 C22.875 18.375 22.875 18.375 24 20 C24 20.66 24 21.32 24 22 C23.34 22 22.68 22 22 22 C21.67 23.65 21.34 25.3 21 27 C19.35 27 17.7 27 16 27 C15.01 29.475 15.01 29.475 14 32 C13.01 32 12.02 32 11 32 C11.33 31.360625 11.66 30.72125 12 30.0625 C13.35505248 25.91265177 13.83203871 22.31482019 13 18 C11.46258982 15.0564887 9.689658 12.95132051 7 11 C3.35817665 10.10944264 3.35817665 10.10944264 0 10 C-2 8 -2 8 -2.25 5 C-2 2 -2 2 0 0 Z " fill="#216847" transform="translate(174,240)"/>
<path d="M0 0 C2.09765625 0.34375 2.09765625 0.34375 4.16015625 1.90625 C5.47647828 5.32868728 5.61687093 7.70924727 5.09765625 11.34375 C2.51596174 14.30510546 0.9088449 15.21131104 -2.96484375 15.84375 C-5.90234375 15.34375 -5.90234375 15.34375 -8.27734375 13.84375 C-10.70898874 10.10275771 -10.39409217 7.76948582 -9.90234375 3.34375 C-7.17762337 -0.41448501 -4.34576236 -0.16959073 0 0 Z " fill="#F3FAF7" transform="translate(253.90234375,276.65625)"/>
<path d="M0 0 C3.0625 0.1875 3.0625 0.1875 5.0625 2.1875 C5.3125 5.1875 5.3125 5.1875 5.0625 8.1875 C4.4025 8.8475 3.7425 9.5075 3.0625 10.1875 C1.7425 10.1875 0.4225 10.1875 -0.9375 10.1875 C-1.6034306 13.21385788 -2.08457268 16.08321602 -1.9375 19.1875 C0.45835286 21.83337234 0.45835286 21.83337234 3.0625 24.1875 C3.62634126 28.13438882 3.43584779 30.38746903 1.75 34 C0.0625 36.1875 0.0625 36.1875 -2.9375 38.1875 C-3.5975 37.1975 -4.2575 36.2075 -4.9375 35.1875 C-4.2775 34.836875 -3.6175 34.48625 -2.9375 34.125 C-0.56557031 32.24075261 -0.56557031 32.24075261 -0.5625 28.6875 C-0.67609137 25.07813517 -0.67609137 25.07813517 -2.9375 22.1875 C-5.37443311 21.82333953 -5.37443311 21.82333953 -8.0625 22 C-8.97257813 22.02707031 -9.88265625 22.05414063 -10.8203125 22.08203125 C-11.51898438 22.11683594 -12.21765625 22.15164063 -12.9375 22.1875 C-12.6075 20.8675 -12.2775 19.5475 -11.9375 18.1875 C-9.2975 18.1875 -6.6575 18.1875 -3.9375 18.1875 C-3.73125 16.929375 -3.525 15.67125 -3.3125 14.375 C-3.19648438 13.66730469 -3.08046875 12.95960938 -2.9609375 12.23046875 C-2.74172152 9.86994176 -2.74172152 9.86994176 -4.9375 7.1875 C-4.24585118 0.27101178 -4.24585118 0.27101178 0 0 Z " fill="#327154" transform="translate(258.9375,255.8125)"/>
<path d="M0 0 C1.9375 1.1875 1.9375 1.1875 3 3 C3.4375 5.9375 3.4375 5.9375 3 9 C1.1875 11.375 1.1875 11.375 -1 13 C-1.99 13 -2.98 13 -4 13 C-3.96519531 13.68707031 -3.93039063 14.37414062 -3.89453125 15.08203125 C-3.86746094 15.98308594 -3.84039062 16.88414062 -3.8125 17.8125 C-3.77769531 18.70582031 -3.74289063 19.59914062 -3.70703125 20.51953125 C-4.04918998 23.41647515 -4.75393573 24.22555028 -7 26 C-7.07654536 21.48382401 -7.10228696 17.40914783 -6 13 C-6.639375 12.690625 -7.27875 12.38125 -7.9375 12.0625 C-10 11 -10 11 -11 10 C-11.58309038 2.7696793 -11.58309038 2.7696793 -9.4375 -0.0625 C-5.94173294 -1.40702579 -3.58985565 -0.91378144 0 0 Z " fill="#226848" transform="translate(223,231)"/>
<path d="M0 0 C2.375 1.5625 2.375 1.5625 4 4 C4.56645882 7.96521177 4.57590314 10.07855498 2.4375 13.5 C0 15 0 15 -3.5625 14.9375 C-7 14 -7 14 -8.9375 12.875 C-10.6712306 9.81547541 -10.42145216 7.43182475 -10 4 C-7.26646839 -0.10029741 -4.80388991 -0.80064832 0 0 Z " fill="#ECF7F3" transform="translate(217,293)"/>
<path d="M0 0 C0.33 0 0.66 0 1 0 C1 5.28 1 10.56 1 16 C5.29 16.33 9.58 16.66 14 17 C14.66 18.98 15.32 20.96 16 23 C17.49886871 24.83689476 17.49886871 24.83689476 19 26 C16.6875 25.8125 16.6875 25.8125 14 25 C13.62875 24.195625 13.2575 23.39125 12.875 22.5625 C10.49378785 19.30817672 9.20133174 19.37288797 5.3125 18.6875 C3.54448095 18.43754659 1.77415868 18.20181432 0 18 C0 20.64 0 23.28 0 26 C-0.66 26 -1.32 26 -2 26 C-2 23.03 -2 20.06 -2 17 C-2.78503906 16.93941406 -3.57007813 16.87882812 -4.37890625 16.81640625 C-9.95361148 16.37179786 -15.47640616 15.87875357 -21 15 C-21 14.01 -21 13.02 -21 12 C-14.15182898 12.48641215 -7.66957927 13.35993952 -1 15 C-1.020625 13.824375 -1.04125 12.64875 -1.0625 11.4375 C-1.06947261 7.52586533 -0.64250343 3.85502056 0 0 Z " fill="#125B39" transform="translate(217,250)"/>
<path d="M0 0 C0.94324258 4.31196609 1.48041715 8.62065881 2 13 C-1 15 -1 15 -4.5 14.875 C-8 14 -8 14 -10 12.375 C-11.46981805 8.88418213 -10.98413921 6.60851044 -10 3 C-7.04030655 -0.39816655 -4.33779596 -0.29575882 0 0 Z " fill="#236848" transform="translate(167,300)"/>
<path d="M0 0 C1.9375 1.0625 1.9375 1.0625 3 3 C3.36528977 6.4093712 3.6140629 8.88023824 1.9375 11.9375 C-1.15493758 13.63335287 -3.55514741 13.43060657 -7 13 C-9.66266871 10.76679398 -9.95347082 9.3799883 -10.375 5.9375 C-10 3 -10 3 -8.9375 1.125 C-5.8930714 -0.64273274 -3.4368988 -0.36823916 0 0 Z " fill="#EFF9F5" transform="translate(180,281)"/>
<path d="M0 0 C3.08830031 3.93734964 5.49754067 8.20784462 7.98828125 12.5390625 C10.43530021 15.53250317 12.33130005 15.99989556 16 17 C16.66 17.66 17.32 18.32 18 19 C17.43181818 24.56818182 17.43181818 24.56818182 16 26 C13.0625 26.1875 13.0625 26.1875 10 26 C9.34 25.34 8.68 24.68 8 24 C8.12375 22.88625 8.2475 21.7725 8.375 20.625 C8.6051593 14.9128647 5.02370645 11.122051 1.75 6.734375 C0 4 0 4 0 0 Z " fill="#27684B" transform="translate(182,294)"/>
<path d="M0 0 C0.66 0 1.32 0 2 0 C2.25 5.625 2.25 5.625 0 9 C-0.66 9 -1.32 9 -2 9 C-2 9.66 -2 10.32 -2 11 C-5.21451269 12.60725635 -8.43612536 12.05748185 -12 12 C-13.90608098 15.21182149 -14.22266247 17.53882603 -14.125 21.25 C-14.10695312 22.14203125 -14.08890625 23.0340625 -14.0703125 23.953125 C-14.04710937 24.62859375 -14.02390625 25.3040625 -14 26 C-14.66 26 -15.32 26 -16 26 C-16.41846009 24.42249576 -16.80896389 22.83755752 -17.1875 21.25 C-17.51814453 19.92742187 -17.51814453 19.92742187 -17.85546875 18.578125 C-18.03967885 15.29221508 -17.06768564 14.46319935 -15 12 C-14.29485154 9.85266073 -14.29485154 9.85266073 -14 8 C-13.31292969 8.04640625 -12.62585938 8.0928125 -11.91796875 8.140625 C-11.01691406 8.17671875 -10.11585938 8.2128125 -9.1875 8.25 C-7.84751953 8.31960938 -7.84751953 8.31960938 -6.48046875 8.390625 C-3.86245866 8.23636375 -3.86245866 8.23636375 -2.21875 6.125 C-1.03080754 4.05371571 -0.41791677 2.34033394 0 0 Z " fill="#1D6644" transform="translate(184,285)"/>
<path d="M0 0 C2.4375 0.75 2.4375 0.75 4.4375 2.75 C4.4375 5.08333333 4.4375 7.41666667 4.4375 9.75 C5.0975 10.41 5.7575 11.07 6.4375 11.75 C4.83229996 11.68976735 3.22815673 11.60091401 1.625 11.5 C0.28501953 11.43039062 0.28501953 11.43039062 -1.08203125 11.359375 C-3.5625 10.75 -3.5625 10.75 -5.39453125 8.8671875 C-6.5625 6.75 -6.5625 6.75 -6.4375 4.125 C-5.17144345 0.68856078 -3.65860675 -0.35693724 0 0 Z " fill="#2E6F51" transform="translate(202.5625,281.25)"/>
<path d="M0 0 C0.66 0 1.32 0 2 0 C2.48828125 5.95703125 2.48828125 5.95703125 2 8 C-0.16796875 9.59375 -0.16796875 9.59375 -3 11 C-3.92039063 11.45761719 -4.84078125 11.91523438 -5.7890625 12.38671875 C-7.19285156 13.03060547 -7.19285156 13.03060547 -8.625 13.6875 C-10.03652344 14.34298828 -10.03652344 14.34298828 -11.4765625 15.01171875 C-14 16 -14 16 -17 16 C-17 17.98 -17 19.96 -17 22 C-17.66 22 -18.32 22 -19 22 C-20 19 -21 16 -22 13 C-20.72189453 13.0928125 -20.72189453 13.0928125 -19.41796875 13.1875 C-15.3923165 12.96666422 -12.90274995 11.80137977 -9.3125 10 C-3.29166667 7 -3.29166667 7 0 7 C0 4.69 0 2.38 0 0 Z " fill="#286B4C" transform="translate(241,281)"/>
<path d="M0 0 C3.0625 0.1875 3.0625 0.1875 5.0625 2.1875 C5.3125 5.1875 5.3125 5.1875 5.0625 8.1875 C4.4025 8.8475 3.7425 9.5075 3.0625 10.1875 C1.7425 10.1875 0.4225 10.1875 -0.9375 10.1875 C-1.2675 10.8475 -1.5975 11.5075 -1.9375 12.1875 C-4.16802992 9.1539793 -4.98164957 7.76144436 -4.6875 3.9375 C-3.67765748 0.23474409 -3.67765748 0.23474409 0 0 Z " fill="#1C6443" transform="translate(258.9375,255.8125)"/>
<path d="M0 0 C5.56818182 0.56818182 5.56818182 0.56818182 7 2 C7.1875 4.9375 7.1875 4.9375 7 8 C5 10 5 10 2 10.3125 C1.01 10.209375 0.02 10.10625 -1 10 C-3 7 -3 7 -2.75 4.4375 C-2 2 -2 2 0 0 Z " fill="#1C6342" transform="translate(157,271)"/>
<path d="M0 0 C2.5 0.25 2.5 0.25 4.5 2.25 C4.6875 5.3125 4.6875 5.3125 4.5 8.25 C3.5 9.25 3.5 9.25 0.5625 9.4375 C-2.5 9.25 -2.5 9.25 -4.5 7.25 C-4.75 4.75 -4.75 4.75 -4.5 2.25 C-2.5 0.25 -2.5 0.25 0 0 Z " fill="#E7F6F0" transform="translate(265.5,305.75)"/>
<path d="M0 0 C2.5 0.25 2.5 0.25 4.5 2.25 C4.125 5.375 4.125 5.375 3.5 8.25 C0.625 8.875 0.625 8.875 -2.5 9.25 C-4.5 7.25 -4.5 7.25 -4.75 4.75 C-4.40058445 1.25584452 -3.49415548 0.34941555 0 0 Z " fill="#E3F5EE" transform="translate(163.5,302.75)"/>
<path d="M0 0 C4.55555556 0.55555556 4.55555556 0.55555556 6 2 C6.04080783 3.99958364 6.04254356 6.00045254 6 8 C3.69 8.33 1.38 8.66 -1 9 C-3 6 -3 6 -2.75 3.9375 C-2 2 -2 2 0 0 Z " fill="#E4F5EE" transform="translate(234,265)"/>
<path d="M0 0 C3 0.125 3 0.125 4 1.125 C4.1875 4.0625 4.1875 4.0625 4 7.125 C3.34 7.785 2.68 8.445 2 9.125 C-2.55555556 8.56944444 -2.55555556 8.56944444 -4 7.125 C-4.125 4.125 -4.125 4.125 -4 1.125 C-3 0.125 -3 0.125 0 0 Z " fill="#E0F2EA" transform="translate(215,329.875)"/>
<path d="M0 0 C0.2475 0.639375 0.495 1.27875 0.75 1.9375 C1.80479558 4.11868898 1.80479558 4.11868898 3.8125 4.8125 C6.38764878 5.03322704 8.50222685 4.62444329 11 4 C11 4.66 11 5.32 11 6 C10.34 6.4125 9.68 6.825 9 7.25 C6.66756516 8.89049468 6.66756516 8.89049468 6.6875 12 C6.89563581 15.04730176 6.89563581 15.04730176 8 18 C7.01 18.33 6.02 18.66 5 19 C2.90559811 15.59659693 2.74202425 12.95562822 3 9 C3.33 8.34 3.66 7.68 4 7 C1.525 6.01 1.525 6.01 -1 5 C-0.67 3.35 -0.34 1.7 0 0 Z " fill="#2D6E50" transform="translate(164,275)"/>
<path d="M0 0 C2.5625 0.1875 2.5625 0.1875 4.5625 2.1875 C4.00694444 6.74305556 4.00694444 6.74305556 2.5625 8.1875 C0.125 8.375 0.125 8.375 -2.4375 8.1875 C-3.0975 7.5275 -3.7575 6.8675 -4.4375 6.1875 C-3.71780303 0.28598485 -3.71780303 0.28598485 0 0 Z " fill="#E9F9F2" transform="translate(218.4375,232.8125)"/>
<path d="M0 0 C1.9375 1.1875 1.9375 1.1875 3 3 C3.1875 6.1875 3.1875 6.1875 3 9 C1.02 9.66 -0.96 10.32 -3 11 C-2.34 10.01 -1.68 9.02 -1 8 C-1.3121764 5.35367713 -1.3121764 5.35367713 -2 3 C-5.62885324 2.84850702 -5.62885324 2.84850702 -9 4 C-9.66 3.34 -10.32 2.68 -11 2 C-7.38613475 -1.61386525 -4.79801865 -1.22131384 0 0 Z " fill="#2F7153" transform="translate(223,231)"/>
<path d="M0 0 C3 1 3 1 4 3 C4.38503376 6.54231061 4.41935959 8.36257342 2.4375 11.375 C-0.81682503 13.54455002 -3.17130414 13.29451507 -7 13 C-6.67 11.68 -6.34 10.36 -6 9 C-4.02 9 -2.04 9 0 9 C0 6.03 0 3.06 0 0 Z " fill="#296D4E" transform="translate(269,305)"/>
<path d="M0 0 C1.670625 0.061875 1.670625 0.061875 3.375 0.125 C3.045 1.115 2.715 2.105 2.375 3.125 C1.1684375 3.0940625 1.1684375 3.0940625 -0.0625 3.0625 C-2.55854885 2.82866379 -2.55854885 2.82866379 -3.625 4.125 C-3.69679964 5.64428038 -3.70892007 7.16667482 -3.6875 8.6875 C-3.67847656 9.51378906 -3.66945313 10.34007812 -3.66015625 11.19140625 C-3.64855469 11.82949219 -3.63695312 12.46757812 -3.625 13.125 C-4.615 12.465 -5.605 11.805 -6.625 11.125 C-6.74875 10.465 -6.8725 9.805 -7 9.125 C-7.309375 8.135 -7.309375 8.135 -7.625 7.125 C-10.11534386 5.82839566 -10.11534386 5.82839566 -12.625 5.125 C-12.625 4.795 -12.625 4.465 -12.625 4.125 C-11.51125 3.83625 -10.3975 3.5475 -9.25 3.25 C-5.08241492 1.95661153 -4.37228229 0.15076835 0 0 Z " fill="#155E3C" transform="translate(265.625,303.875)"/>
<path d="M0 0 C0.99 0.495 0.99 0.495 2 1 C2 7.6 2 14.2 2 21 C2.66 21.33 3.32 21.66 4 22 C2.02 22.99 2.02 22.99 0 24 C0 16.08 0 8.16 0 0 Z " fill="#B5DAC9" transform="translate(633,243)"/>
<path d="M0 0 C0.33 0 0.66 0 1 0 C1 1.65 1 3.3 1 5 C1.66 5 2.32 5 3 5 C3.33 4.34 3.66 3.68 4 3 C7.63 3.66 11.26 4.32 15 5 C14.01 6.485 14.01 6.485 13 8 C5.375 7.125 5.375 7.125 2 6 C1.34 7.65 0.68 9.3 0 11 C-0.33 11 -0.66 11 -1 11 C-0.67 7.37 -0.34 3.74 0 0 Z " fill="#2A6F4F" transform="translate(221,298)"/>
<path d="M0 0 C0.86882813 0.00386719 1.73765625 0.00773437 2.6328125 0.01171875 C4.875 0.3125 4.875 0.3125 6.875 2.3125 C6.13894531 2.25449219 5.40289063 2.19648438 4.64453125 2.13671875 C0.00305997 1.92211968 -3.17994947 1.79364873 -7.3125 4.0625 C-10.06910649 9.00538061 -9.52227965 13.77707019 -9.125 19.3125 C-11.8684961 16.5690039 -11.81768036 14.33299353 -12.15625 10.56640625 C-12.11192529 7.36948645 -11.18148042 5.72354601 -9.125 3.3125 C-6.05670756 0.55170528 -4.11198465 -0.07978478 0 0 Z " fill="#CCE9DD" transform="translate(583.125,275.6875)"/>
<path d="M0 0 C0.99 1.485 0.99 1.485 2 3 C4.04089856 5.8744845 4.04089856 5.8744845 7 8 C9.8881644 8.13395939 12.13786835 7.63063918 15 7 C14.67 8.32 14.34 9.64 14 11 C4.95909875 11.77641328 4.95909875 11.77641328 1.375 8.875 C-0.16925913 5.64609454 -0.3289276 3.53597175 0 0 Z " fill="#206344" transform="translate(205,299)"/>
<path d="M0 0 C11.52164009 0.96355353 11.52164009 0.96355353 17 2 C16.01 2.495 16.01 2.495 15 3 C15 3.66 15 4.32 15 5 C7.575 4.01 7.575 4.01 0 3 C0 2.01 0 1.02 0 0 Z " fill="#1D6444" transform="translate(196,262)"/>
<path d="M0 0 C1.98 0 3.96 0 6 0 C5.67 7.59 5.34 15.18 5 23 C4.01 23.33 3.02 23.66 2 24 C2 23.34 2 22.68 2 22 C2.66 22 3.32 22 4 22 C4 15.4 4 8.8 4 2 C2.68 1.34 1.36 0.68 0 0 Z " fill="#DCF5EA" transform="translate(209,267)"/>
<path d="M0 0 C2.97 0 5.94 0 9 0 C8.67 0.99 8.34 1.98 8 3 C7.01 3 6.02 3 5 3 C5 4.98 5 6.96 5 9 C4.34 9 3.68 9 3 9 C2 6 1 3 0 0 Z " fill="#13603D" transform="translate(219,294)"/>
<path d="M0 0 C1.26237731 2.52475462 1.09856404 4.31200466 1.0625 7.125 C1.05347656 8.03507812 1.04445312 8.94515625 1.03515625 9.8828125 C1.02355469 10.58148438 1.01195312 11.28015625 1 12 C0.34 12 -0.32 12 -1 12 C-1.66 8.7 -2.32 5.4 -3 2 C-2.01 1.34 -1.02 0.68 0 0 Z " fill="#135F3C" transform="translate(169,299)"/>
<path d="M0 0 C0.33 0.66 0.66 1.32 1 2 C1.66 2 2.32 2 3 2 C3 4.97 3 7.94 3 11 C2.01 11 1.02 11 0 11 C0 7.37 0 3.74 0 0 Z " fill="#347457" transform="translate(214,274)"/>
<path d="M0 0 C0.66 0 1.32 0 2 0 C1.625 1.9375 1.625 1.9375 1 4 C-1.70879335 5.35439668 -4.00933268 5.06501451 -7 5 C-7.33 4.01 -7.66 3.02 -8 2 C-7.05125 2.04125 -6.1025 2.0825 -5.125 2.125 C-1.89755144 2.34973818 -1.89755144 2.34973818 0 0 Z " fill="#1A5E3E" transform="translate(219,336)"/>
<path d="M0 0 C0.66 0 1.32 0 2 0 C2.9765625 6.0546875 2.9765625 6.0546875 3 8 C2.34 8.66 1.68 9.32 1 10 C-1.29404844 6.55892734 -1.26293056 5.03160191 -1 1 C-0.67 0.67 -0.34 0.34 0 0 Z " fill="#236949" transform="translate(209,330)"/>
<path d="M0 0 C0.78375 0.04125 1.5675 0.0825 2.375 0.125 C2.375 0.785 2.375 1.445 2.375 2.125 C1.055 2.455 -0.265 2.785 -1.625 3.125 C-1.955 5.105 -2.285 7.085 -2.625 9.125 C-3.285 8.795 -3.945 8.465 -4.625 8.125 C-4.75 5.25 -4.75 5.25 -4.625 2.125 C-2.625 0.125 -2.625 0.125 0 0 Z " fill="#145E3C" transform="translate(176.625,239.875)"/>
<path d="M0 0 C-1.15173355 2.46800047 -2.04783565 4.04783565 -4 6 C-4.46006346 8.20250992 -4.46006346 8.20250992 -4.625 10.625 C-4.69976562 11.44226563 -4.77453125 12.25953125 -4.8515625 13.1015625 C-4.92503906 14.04128906 -4.92503906 14.04128906 -5 15 C-5.33 15 -5.66 15 -6 15 C-6.62608696 6.04347826 -6.62608696 6.04347826 -4.125 1.875 C-2 0 -2 0 0 0 Z " fill="#DFF6EC" transform="translate(380,277)"/>
<path d="M0 0 C5.28 0 10.56 0 16 0 C15.34 1.32 14.68 2.64 14 4 C13.67 3.01 13.34 2.02 13 1 C8.38 1.33 3.76 1.66 -1 2 C-0.67 1.34 -0.34 0.68 0 0 Z " fill="#1C6040" transform="translate(536,263)"/>
<path d="M0 0 C1.65 0 3.3 0 5 0 C4.67 1.65 4.34 3.3 4 5 C2.68 4.67 1.36 4.34 0 4 C0 2.68 0 1.36 0 0 Z " fill="#D6F2E6" transform="translate(192,313)"/>
<path d="M0 0 C2.64 0 5.28 0 8 0 C8.33 0.66 8.66 1.32 9 2 C6.29120665 3.35439668 3.99066732 3.06501451 1 3 C0.67 2.01 0.34 1.02 0 0 Z " fill="#226848" transform="translate(247,292)"/>
<path d="M0 0 C0.33 0 0.66 0 1 0 C1.433125 1.6396875 1.433125 1.6396875 1.875 3.3125 C2.81893204 7.04013845 2.81893204 7.04013845 5 10 C4.34 10.66 3.68 11.32 3 12 C0.9375 9.9375 0.9375 9.9375 -1 7 C-0.75 3.1875 -0.75 3.1875 0 0 Z " fill="#327556" transform="translate(243,282)"/>
<path d="M0 0 C2.64 0 5.28 0 8 0 C5.7448078 2.2551922 3.9952413 2.97723468 1 4 C0.01 4 -0.98 4 -2 4 C-1.34 2.68 -0.68 1.36 0 0 Z " fill="#266649" transform="translate(232,263)"/>
<path d="M0 0 C3.55700273 2.66775205 6.521673 5.2825095 9 9 C8.67 9.99 8.34 10.98 8 12 C7.51789063 11.37351562 7.03578125 10.74703125 6.5390625 10.1015625 C5.90742188 9.28429687 5.27578125 8.46703125 4.625 7.625 C3.99851563 6.81289062 3.37203125 6.00078125 2.7265625 5.1640625 C1.03226506 2.95776805 1.03226506 2.95776805 -1 1 C-0.67 0.67 -0.34 0.34 0 0 Z " fill="#43755E" transform="translate(180,248)"/>
<path d="M0 0 C0.33 0.99 0.66 1.98 1 3 C0 4 0 4 -2.06640625 4.09765625 C-2.89011719 4.08605469 -3.71382812 4.07445312 -4.5625 4.0625 C-5.38878906 4.05347656 -6.21507812 4.04445313 -7.06640625 4.03515625 C-7.70449219 4.02355469 -8.34257812 4.01195312 -9 4 C-8 2 -8 2 -6.15234375 1.3671875 C-5.05599609 1.12355469 -5.05599609 1.12355469 -3.9375 0.875 C-3.20402344 0.70742188 -2.47054687 0.53984375 -1.71484375 0.3671875 C-1.14894531 0.24601562 -0.58304688 0.12484375 0 0 Z " fill="#125F3C" transform="translate(219,306)"/>
<path d="M0 0 C2.475 0.495 2.475 0.495 5 1 C4.67 2.32 4.34 3.64 4 5 C2.68 4.67 1.36 4.34 0 4 C0 2.68 0 1.36 0 0 Z " fill="#D8F3E7" transform="translate(157,274)"/>
<path d="M0 0 C1.98 0.495 1.98 0.495 4 1 C3.67 2.32 3.34 3.64 3 5 C1.68 5 0.36 5 -1 5 C-0.67 3.35 -0.34 1.7 0 0 Z " fill="#C7E9DA" transform="translate(258,258)"/>
<path d="M0 0 C1.98 0.495 1.98 0.495 4 1 C3.67 2.32 3.34 3.64 3 5 C1.68 4.67 0.36 4.34 -1 4 C-0.67 2.68 -0.34 1.36 0 0 Z " fill="#E3FCF2" transform="translate(200,284)"/>
<path d="M0 0 C1.98 0.495 1.98 0.495 4 1 C3.67 2.32 3.34 3.64 3 5 C1.68 4.67 0.36 4.34 -1 4 C-0.67 2.68 -0.34 1.36 0 0 Z " fill="#D5F2E6" transform="translate(191,260)"/>
<path d="M0 0 C0.66 0 1.32 0 2 0 C2 2.64 2 5.28 2 8 C0.68 8.33 -0.64 8.66 -2 9 C-1.34 6.03 -0.68 3.06 0 0 Z " fill="#1B6241" transform="translate(241,281)"/>
<path d="M0 0 C1.98 0 3.96 0 6 0 C6 2.31 6 4.62 6 7 C5.34 7 4.68 7 4 7 C4 5.35 4 3.7 4 2 C2.68 1.34 1.36 0.68 0 0 Z " fill="#CFEFE1" transform="translate(209,267)"/>
<path d="M0 0 C0.66 0 1.32 0 2 0 C1.125 4.875 1.125 4.875 0 6 C-1.66617115 6.04063832 -3.33388095 6.042721 -5 6 C-4 4 -4 4 -1 3 C-0.67 2.01 -0.34 1.02 0 0 Z " fill="#125C39" transform="translate(162,275)"/>
<path d="M0 0 C2.64 0.33 5.28 0.66 8 1 C7.01 1.495 7.01 1.495 6 2 C6 2.66 6 3.32 6 4 C3.36 3.67 0.72 3.34 -2 3 C-1.34 2.01 -0.68 1.02 0 0 Z " fill="#2F7354" transform="translate(205,263)"/>
<path d="M0 0 C4.51720311 -0.36625971 4.51720311 -0.36625971 6.8125 1.375 C8 3 8 3 8 5 C4.20411134 4.45773019 2.52788007 2.79872437 0 0 Z " fill="#357457" transform="translate(190,257)"/>
<path d="M0 0 C1.65 0 3.3 0 5 0 C5 1.32 5 2.64 5 4 C3.35 3.67 1.7 3.34 0 3 C0 2.01 0 1.02 0 0 Z " fill="#D9F5EA" transform="translate(174,243)"/>
<path d="M0 0 C1.093125 0.226875 2.18625 0.45375 3.3125 0.6875 C2.3225 2.1725 2.3225 2.1725 1.3125 3.6875 C-1.3275 3.3575 -3.9675 3.0275 -6.6875 2.6875 C-4.58035839 -0.41123767 -3.86755884 -0.32775922 0 0 Z " fill="#437F63" transform="translate(232.6875,302.3125)"/>
<path d="M0 0 C0.66 0.33 1.32 0.66 2 1 C1.2884375 1.804375 1.2884375 1.804375 0.5625 2.625 C-1.28186076 5.42842836 -1.62456847 7.69620258 -2 11 C-2.33 11 -2.66 11 -3 11 C-3.36923077 3.49230769 -3.36923077 3.49230769 -1.5 1 C-1.005 0.67 -0.51 0.34 0 0 Z " fill="#DEF5EB" transform="translate(247,277)"/>
<path d="M0 0 C1.32 0.33 2.64 0.66 4 1 C4 2.32 4 3.64 4 5 C3.34 5.66 2.68 6.32 2 7 C1.34 4.69 0.68 2.38 0 0 Z " fill="#2F7253" transform="translate(238,264)"/>
<path d="M0 0 C1.98 0 3.96 0 6 0 C5.67 0.99 5.34 1.98 5 3 C3.02 3 1.04 3 -1 3 C-0.67 2.01 -0.34 1.02 0 0 Z " fill="#407E62" transform="translate(161,300)"/>
<path d="M0 0 C2.97 0.495 2.97 0.495 6 1 C6.33 1.99 6.66 2.98 7 4 C4.03 3.505 4.03 3.505 1 3 C0.67 2.01 0.34 1.02 0 0 Z " fill="#2E6E51" transform="translate(157,271)"/>
<path d="M0 0 C0.66 1.32 1.32 2.64 2 4 C0.68 5.32 -0.64 6.64 -2 8 C-2.33 7.34 -2.66 6.68 -3 6 C-2.06553465 3.96855359 -1.06775224 1.96466413 0 0 Z " fill="#246849" transform="translate(188,265)"/>
<path d="M0 0 C0.94875 0.04125 1.8975 0.0825 2.875 0.125 C3.205 0.785 3.535 1.445 3.875 2.125 C0.54965243 3.23344919 -1.74682575 2.96954356 -5.125 2.125 C-3.125 0.125 -3.125 0.125 0 0 Z " fill="#216848" transform="translate(222.125,265.875)"/>
<path d="M0 0 C0.99 0.33 1.98 0.66 3 1 C3 1.99 3 2.98 3 4 C3.99 4.33 4.98 4.66 6 5 C5.01 5 4.02 5 3 5 C2.67 5.66 2.34 6.32 2 7 C0 4 0 4 0 0 Z " fill="#347558" transform="translate(254,259)"/>
</svg>
